<?xml version="1.0" encoding="UTF-8"?>
<svg id="Layer_1" data-name="Layer 1" xmlns="http://www.w3.org/2000/svg" viewBox="0 0 550 550">
  <defs>
    <style>
      .cls-1 {
        fill: #fff;
      }
    </style>
  </defs>
  <g>
    <path class="cls-1" d="M550,550H0V0h550v550ZM4.37,275.43c90.41,90.41,181,181,270.94,270.93,90.23-90.23,180.89-180.88,270.68-270.67C455.89,185.57,365.35,95.01,275.09,4.72,185.05,94.76,94.57,185.24,4.37,275.43Z"/>
    <path d="M4.37,275.43C94.57,185.24,185.05,94.76,275.09,4.72c90.26,90.28,180.8,180.85,270.9,270.97-89.8,89.79-180.45,180.45-270.68,270.67C185.37,456.43,94.78,365.85,4.37,275.43ZM21.77,272.25c-.45-.46-.89-.91-1.34-1.37C103.94,187.4,187.44,103.91,270.95,20.43c.43.43.87.87,1.3,1.3C188.76,105.24,105.26,188.75,21.77,272.25ZM530.26,271.44c-.51.5-1.02,1.01-1.52,1.51-83.48-83.51-166.97-167.02-250.45-250.52.5-.5,1-.99,1.49-1.49,83.49,83.5,166.99,167,250.48,250.51ZM20.91,279.79c.46-.47.92-.94,1.38-1.4,83.49,83.51,166.99,167.03,250.48,250.54l-1.36,1.36c-83.5-83.5-167-166.99-250.51-250.49ZM280.02,530.53c-.46-.46-.93-.93-1.39-1.39,83.5-83.5,167-167.01,250.51-250.51.47.47.93.93,1.4,1.4-83.5,83.5-167.01,167-250.51,250.51Z"/>
    <path class="cls-1" d="M21.77,272.25C105.26,188.75,188.76,105.24,272.25,21.73c-.43-.43-.87-.87-1.3-1.3C187.44,103.91,103.94,187.4,20.43,270.88c.45.46.89.91,1.34,1.37Z"/>
    <path class="cls-1" d="M530.26,271.44c-83.49-83.5-166.99-167-250.48-250.51-.5.5-1,.99-1.49,1.49,83.48,83.51,166.97,167.02,250.45,250.52.51-.5,1.02-1.01,1.52-1.51Z"/>
    <path class="cls-1" d="M20.91,279.79c83.5,83.5,167,166.99,250.51,250.49l1.36-1.36c-83.49-83.51-166.99-167.03-250.48-250.54-.46.47-.92.94-1.38,1.4Z"/>
    <path class="cls-1" d="M280.02,530.53c83.5-83.5,167.01-167,250.51-250.51-.47-.47-.93-.93-1.4-1.4-83.5,83.5-167,167.01-250.51,250.51.46.46.93.93,1.39,1.39Z"/>
  </g>
  <g>
    <path class="cls-1" d="M339.41,188.96c.26.09.52.18.77.28,0,.03,0,.07,0,.1-.75.08-1.5.16-2.25.23-3.05.27-5.99.96-8.8,2.18-3.18,1.38-6,3.31-8.52,5.68-3.94,3.71-7.03,8.05-9.57,12.81-2.67,5-4.58,10.3-6.11,15.74-1.7,6.03-3.03,12.14-4.01,18.33-.64,4.02-1.14,8.06-1.49,12.11-.3,3.4-.49,6.8-.63,10.2-.16,4.24-.17,8.47-.06,12.71.1,3.67.32,7.35.56,11.01.19,2.91.45,5.81.78,8.7,1.16,10.05,3.26,19.89,6.93,29.35,2.15,5.54,4.92,10.74,8.67,15.39,2.71,3.35,5.78,6.31,9.45,8.6,3.79,2.37,7.91,3.82,12.35,4.34.66.08,1.31.15,1.97.23.11.01.22.06.32.19-.4,0-.8,0-1.2,0-4.83-.1-9.6-.65-14.31-1.75-7.48-1.75-14.4-4.8-20.89-8.88-5.71-3.6-10.97-7.75-15.67-12.6-5.27-5.44-9.64-11.53-13.15-18.25-3.63-6.95-6.14-14.3-7.86-21.93-.85-3.77-1.55-7.57-1.95-11.41-.26-2.5-.4-5.02-.55-7.54-.08-1.36-.1-2.73-.08-4.09.05-3.66.3-7.3.8-10.93,1.09-8,3.33-15.66,6.66-23.01,3.03-6.68,6.86-12.86,11.37-18.64,2.54-3.26,5.23-6.4,8.18-9.31,8.55-8.45,18.63-14.25,30.26-17.32,4.11-1.08,8.27-1.81,12.51-2.14,1.46-.12,2.93-.17,4.39-.27.14,0,.27-.06.41-.09.25,0,.5,0,.74,0Z"/>
    <path class="cls-1" d="M156.94,188.96c.2.03.4.09.6.09,3.14.02,6.29.02,9.43.04,1.86.01,3.72,0,5.58.12,1.86.12,3.53.85,4.98,2.01.37.29.69.66.97,1.04,8.25,10.89,16.51,21.78,24.73,32.69,8.45,11.21,16.88,22.43,25.3,33.66,6.44,8.58,12.84,17.2,19.27,25.79.33.44.44.89.29,1.39-.34,1.17-.63,2.36-1.09,3.48-2.06,5.13-4.55,10.04-7.38,14.79-.63,1.05-1.33,2.04-2.28,2.84-.74.61-1.56,1-2.55.94-.66-.04-1.24-.28-1.79-.63-.97-.62-1.74-1.46-2.43-2.37-3.24-4.26-6.48-8.53-9.73-12.78-9.62-12.61-19.24-25.21-28.85-37.82-9.09-11.92-18.16-23.85-27.25-35.77-3.8-4.98-7.58-9.97-11.4-14.94-2.92-3.8-6.31-7.1-10.42-9.63-3.8-2.34-7.91-3.82-12.3-4.57-.3-.05-.6-.11-.89-.27.24,0,.48,0,.72,0,3.27,0,6.54,0,9.8,0,.22,0,.44-.06.65-.09,5.34,0,10.68,0,16.01,0Z"/>
    <path class="cls-1" d="M421.33,214.02c-.03.2-.09.39-.09.59-.02,3.66,0,7.32-.07,10.98-.05,2.72-.21,5.45-.33,8.17-.01.24-.08.47-.12.69-.41.11-.68-.06-.9-.28-.4-.39-.79-.79-1.13-1.23-1.18-1.57-2.16-3.28-3.1-5-1.74-3.19-3.44-6.4-5.2-9.59-5.04-9.14-12.26-16.08-21.41-21.05-4.89-2.65-9.99-4.76-15.42-6.02-2.8-.65-5.63-1.14-8.49-1.44-2.08-.22-4.15-.39-6.35-.6.4-.03.69-.06.98-.06,3.12.08,6.24.09,9.36.27,3.2.18,6.39.46,9.58.8,4.4.47,8.77,1.17,13.11,2.02,4.79.93,9.53,2.07,14.23,3.36,1.92.53,3.87.89,5.87.91,2.13.03,4.15-.39,5.94-1.62,1.18-.81,2.09-1.87,2.85-3.07.11-.17.22-.33.37-.55.13.31.24.54.34.78v21.96Z"/>
    <path class="cls-1" d="M152.34,299.41c.24,1.15.52,2.29.72,3.45.73,4.09,1.43,8.18,2.14,12.27.88,5.07,1.86,10.11,3.45,15.02,1.45,4.51,3.39,8.79,6.07,12.71,3.09,4.53,6.96,8.28,11.49,11.36,1.45.99,2.98,1.86,4.47,2.78.17.1.33.21.47.39h-50.62s-.02-.06-.03-.09c.18-.08.35-.17.53-.25,2.74-1.19,5.33-2.64,7.67-4.52,3.89-3.14,6.52-7.15,8.19-11.82,1.04-2.91,1.71-5.91,2.23-8.95.47-2.75.95-5.5,1.32-8.26.34-2.54.61-5.09.79-7.64.35-5.17.61-10.35.91-15.53.02-.31.06-.61.1-.92.04,0,.08,0,.11,0Z"/>
    <path class="cls-1" d="M358.13,357.06c1.04-.08,2.08-.18,3.12-.24,7.1-.41,14.02-1.67,20.65-4.33,6.94-2.79,13.15-6.74,18.64-11.82,4.17-3.86,7.6-8.33,10.48-13.22,1.46-2.47,2.77-5.03,4.02-7.61,1.28-2.62,2.82-5.1,4.52-7.47.2-.28.44-.53.77-.91.05.42.1.67.1.93.1,2.89.21,5.78.29,8.67.09,3.47.17,6.94.24,10.41.05,2.54.11,5.08.13,7.62.05,5.06.07,10.13.11,15.19,0,.33.05.69-.48.71-.07-.12-.17-.25-.24-.4-1.22-2.55-3.32-3.93-6.03-4.48-2.25-.45-4.49-.31-6.71.18-3.57.79-7.12,1.66-10.68,2.48-4.75,1.09-9.52,2.11-14.34,2.88-2.98.47-5.98.81-8.99,1.06-4.16.34-8.34.48-12.51.47-1.03,0-2.07,0-3.1,0,0-.04,0-.08,0-.13Z"/>
  </g>
</svg>